<?xml version="1.0" standalone="no"?>
<!DOCTYPE svg PUBLIC "-//W3C//DTD SVG 20010904//EN"
 "http://www.w3.org/TR/2001/REC-SVG-20010904/DTD/svg10.dtd">
<svg version="1.0" xmlns="http://www.w3.org/2000/svg"
 width="332.000000pt" height="393.000000pt" viewBox="0 0 332.000000 393.000000"
 preserveAspectRatio="xMidYMid meet">
<g transform="translate(0.000000,393.000000) scale(0.100000,-0.100000)"
fill="#1e3a8a" stroke="none">
<path d="M1597 3829 c7 -7 15 -10 18 -7 3 3 -2 9 -12 12 -14 6 -15 5 -6 -5z"/>
<path d="M1635 3790 c-22 -3 -67 -18 -99 -33 -41 -20 -62 -25 -69 -18 -6 6
-15 11 -21 11 -5 0 -1 -6 9 -14 18 -13 17 -15 -15 -35 -19 -11 -40 -21 -47
-21 -6 0 -13 -4 -15 -8 -1 -4 -19 -18 -39 -30 -25 -15 -39 -18 -46 -11 -8 8
-11 7 -10 -2 1 -8 -2 -15 -6 -16 -4 -1 -14 -9 -22 -17 -8 -8 -23 -12 -34 -9
-10 3 -22 0 -25 -6 -5 -7 0 -9 11 -5 21 8 -86 -60 -111 -69 -9 -4 -15 -3 -12
2 3 4 -5 8 -17 7 -13 -1 -21 -7 -20 -16 3 -20 -63 -61 -99 -62 -16 -1 -31 -5
-34 -9 -3 -5 3 -6 13 -2 16 6 16 5 4 -10 -11 -13 -17 -15 -28 -6 -11 10 -12 8
-7 -6 5 -11 4 -16 -3 -12 -5 4 -20 -5 -33 -18 -23 -24 -42 -27 -69 -11 -10 7
-12 6 -6 -4 6 -10 4 -12 -8 -7 -9 3 -19 2 -22 -3 -9 -15 -27 -12 -19 3 4 6 3
8 -1 4 -5 -4 -10 -14 -11 -22 -2 -12 2 -13 19 -3 24 13 57 18 57 9 0 -11 -41
-32 -50 -26 -6 4 -10 2 -10 -4 0 -14 -60 -41 -85 -38 -11 1 -20 -4 -20 -10 0
-18 -43 -46 -57 -37 -7 4 -8 3 -4 -4 4 -7 2 -12 -3 -12 -20 0 -26 -3 -37 -18
-7 -9 -16 -12 -24 -7 -8 5 -11 4 -7 -2 7 -11 -61 -48 -80 -44 -7 1 -13 -3 -13
-8 0 -5 -22 -22 -50 -38 -27 -15 -50 -32 -50 -37 0 -13 21 -2 230 116 239 135
443 250 795 448 269 151 270 151 325 148 46 -4 75 -15 170 -70 100 -57 582
-329 710 -400 41 -23 127 -71 362 -203 l87 -49 -98 -58 -97 -58 -130 73 c-71
41 -217 123 -324 184 -107 60 -304 171 -436 246 -133 76 -247 137 -253 137 -6
0 -116 -59 -244 -131 -127 -73 -320 -182 -427 -242 -107 -61 -257 -146 -332
-189 l-138 -78 -32 19 c-136 75 -188 101 -188 93 0 -5 16 -17 35 -26 19 -9 35
-21 35 -27 0 -6 5 -7 10 -4 6 3 10 1 10 -5 0 -6 5 -8 10 -5 6 3 10 1 10 -4 0
-6 3 -10 8 -9 14 4 73 -33 67 -42 -3 -6 1 -7 10 -4 9 4 25 -2 36 -12 18 -17
21 -17 36 -1 12 12 13 17 5 17 -7 0 -10 5 -7 11 4 6 14 8 22 5 8 -3 11 -1 8 4
-7 12 35 30 49 22 5 -3 7 1 4 10 -4 8 -1 15 5 15 19 0 126 60 120 67 -6 6 21
10 40 7 5 -1 5 4 1 10 -5 9 -2 10 9 6 9 -3 16 -2 14 4 -1 5 22 20 51 33 30 13
57 27 60 33 12 17 52 34 64 27 7 -5 8 -3 3 6 -6 10 -4 12 9 7 9 -4 15 -3 12 2
-3 5 8 14 24 21 17 7 30 17 30 22 0 5 4 7 9 3 5 -3 12 -1 16 5 4 6 12 7 18 4
7 -4 9 -4 5 1 -10 10 29 38 41 31 5 -3 12 1 15 10 3 8 10 13 15 10 5 -3 12 1
15 10 4 9 13 14 21 10 8 -3 15 -1 15 3 0 5 12 14 28 21 46 19 72 34 72 42 0 5
12 8 26 8 17 0 23 4 18 12 -5 8 -2 9 10 5 10 -4 15 -3 11 3 -3 6 1 10 10 10 9
0 14 3 11 8 -2 4 7 12 20 19 14 6 26 7 30 2 7 -12 34 -12 34 1 0 5 -7 7 -15 4
-8 -4 -15 -2 -15 4 0 9 59 42 74 42 4 0 20 10 35 21 17 13 34 18 42 14 8 -6
10 -4 4 5 -5 8 -3 11 6 8 8 -3 13 -12 11 -22 -3 -19 9 -21 26 -4 9 9 15 10 20
2 4 -6 21 -17 38 -24 22 -10 30 -19 26 -29 -5 -13 -3 -14 10 -3 13 10 17 10
22 -4 3 -9 13 -14 20 -11 8 3 17 -1 20 -9 3 -9 10 -12 16 -9 5 3 10 1 10 -5 0
-6 5 -8 10 -5 6 3 10 1 10 -4 0 -6 6 -11 13 -11 7 0 18 -9 25 -20 7 -12 17
-18 22 -15 6 3 25 -5 42 -18 49 -36 63 -43 53 -26 -5 8 3 2 18 -12 14 -14 44
-32 66 -39 22 -7 38 -17 35 -22 -3 -5 0 -9 7 -7 27 3 40 -1 34 -11 -4 -6 -3
-10 2 -9 4 1 15 1 23 0 13 -1 13 -2 0 -11 -12 -8 -11 -10 8 -10 13 0 37 -7 54
-16 24 -13 28 -18 17 -25 -9 -6 -4 -7 16 -3 27 7 29 6 17 -9 -8 -9 -21 -13
-30 -10 -9 3 -14 3 -11 -1 4 -4 19 -9 35 -12 22 -3 25 -2 14 6 -13 8 -13 10 1
10 9 0 19 -3 23 -7 7 -8 11 -9 37 -12 5 0 7 -5 4 -11 -3 -5 3 -10 15 -10 12 0
18 -4 15 -10 -3 -6 4 -10 17 -10 14 0 33 -7 44 -16 10 -8 13 -12 5 -8 -10 5
-12 3 -7 -5 5 -7 14 -10 21 -7 8 3 19 -2 25 -9 7 -8 16 -13 20 -10 4 2 16 -2
26 -10 16 -13 17 -16 4 -25 -20 -13 -4 -13 20 0 16 8 18 7 14 -4 -4 -11 0 -13
15 -9 12 3 21 1 21 -6 0 -6 6 -11 14 -11 7 0 19 -7 26 -15 7 -8 16 -13 20 -10
5 3 11 1 15 -4 3 -5 18 -16 34 -24 25 -13 29 -12 40 5 6 10 19 17 29 16 9 -2
16 2 15 9 -2 7 15 18 37 24 21 7 38 16 37 22 -1 5 6 11 16 12 10 2 28 12 39
22 20 17 19 18 -4 36 -13 11 -24 23 -24 28 -1 5 -2 12 -3 15 0 4 -8 1 -16 -6
-13 -10 -19 -10 -33 4 -10 9 -24 16 -30 16 -7 0 -11 6 -9 13 1 6 -4 11 -11 9
-16 -3 -44 23 -34 32 3 4 -2 4 -12 0 -15 -6 -17 -4 -11 6 5 9 4 11 -4 6 -16
-10 -53 3 -45 16 4 6 2 8 -4 4 -6 -3 -17 1 -25 9 -9 8 -22 15 -31 15 -21 0
-31 21 -15 31 20 13 1 11 -23 -2 -15 -8 -19 -8 -14 0 4 6 0 11 -9 11 -8 0 -33
11 -55 25 -22 14 -44 25 -50 25 -6 0 -8 4 -5 10 3 6 -1 7 -9 4 -11 -4 -16 0
-16 11 0 9 -4 13 -10 10 -5 -3 -10 -2 -10 4 0 6 -7 7 -17 4 -12 -5 -14 -3 -8
7 5 9 4 11 -3 6 -7 -4 -21 2 -33 13 -12 11 -27 18 -32 14 -6 -3 -7 -1 -3 5 4
7 -3 14 -19 18 -14 3 -25 10 -25 16 0 5 -3 7 -8 4 -11 -6 -124 59 -115 67 3 4
0 8 -8 9 -31 3 -34 4 -47 11 -7 5 -10 12 -7 16 2 5 -6 7 -20 6 -16 -2 -22 1
-19 10 4 10 -1 12 -15 8 -19 -5 -26 4 -22 30 1 4 -7 4 -16 -2 -13 -6 -24 -5
-36 4 -18 13 -18 13 0 18 12 3 8 5 -10 6 -20 1 -26 5 -21 14 5 8 2 8 -9 -2
-12 -9 -17 -10 -17 -2 0 7 -4 10 -9 7 -4 -3 -17 4 -27 16 -19 21 -19 21 4 9
13 -7 26 -10 30 -7 3 3 0 6 -7 6 -7 0 -10 4 -7 8 3 5 -12 7 -32 6 -30 -2 -46
5 -84 37 -26 21 -50 39 -54 39 -4 0 1 -7 12 -16 10 -8 12 -12 4 -8 -8 4 -22
12 -30 19 -30 24 -95 41 -135 35z m-1085 -880 c0 -5 -4 -10 -9 -10 -6 0 -13 5
-16 10 -3 6 1 10 9 10 9 0 16 -4 16 -10z"/>
<path d="M1546 3705 c-11 -8 -15 -15 -9 -15 6 0 16 7 23 15 16 19 11 19 -14 0z"/>
<path d="M1668 3703 c6 -2 18 -2 25 0 6 3 1 5 -13 5 -14 0 -19 -2 -12 -5z"/>
<path d="M1285 3671 c-3 -5 0 -13 6 -17 8 -5 9 -3 4 6 -6 10 -3 12 13 8 12 -4
20 -2 16 3 -7 12 -31 12 -39 0z"/>
<path d="M1340 3668 c0 -4 4 -8 9 -8 6 0 12 4 15 8 3 5 -1 9 -9 9 -8 0 -15 -4
-15 -9z"/>
<path d="M1423 3642 c-9 -5 -6 -12 10 -21 19 -13 21 -12 10 1 -7 8 -10 18 -6
21 9 9 1 8 -14 -1z"/>
<path d="M1529 3573 c-13 -16 -12 -17 4 -4 16 13 21 21 13 21 -2 0 -10 -8 -17
-17z"/>
<path d="M1584 3582 c3 -5 0 -13 -6 -15 -9 -4 -10 -6 -1 -6 17 -1 25 16 12 25
-7 4 -9 3 -5 -4z"/>
<path d="M1974 3549 c-3 -5 3 -6 12 -2 13 5 15 3 9 -8 -7 -12 -6 -12 11 1 10
8 20 15 22 16 2 1 -9 2 -23 2 -14 0 -28 -4 -31 -9z"/>
<path d="M2100 3496 c0 -2 7 -7 16 -10 8 -3 12 -2 9 4 -6 10 -25 14 -25 6z"/>
<path d="M1106 3462 c-3 -5 1 -9 9 -9 8 0 12 4 9 9 -3 4 -7 8 -9 8 -2 0 -6 -4
-9 -8z"/>
<path d="M1329 3433 c-13 -16 -12 -17 4 -4 9 7 17 15 17 17 0 8 -8 3 -21 -13z"/>
<path d="M2030 3436 c0 -2 7 -7 16 -10 8 -3 12 -2 9 4 -6 10 -25 14 -25 6z"/>
<path d="M2410 3416 c7 -7 13 -7 20 0 6 6 3 10 -10 10 -13 0 -16 -4 -10 -10z"/>
<path d="M1605 3404 c-16 -8 -37 -21 -45 -28 -8 -7 -35 -23 -60 -36 -63 -32
-66 -33 -151 -84 -42 -25 -81 -46 -87 -46 -5 0 -13 -7 -16 -16 -4 -9 -13 -14
-22 -10 -8 3 -12 2 -9 -4 3 -6 1 -10 -6 -10 -6 0 -34 -14 -61 -30 -27 -17 -54
-27 -60 -24 -7 4 -8 2 -4 -4 4 -7 2 -13 -3 -13 -6 -1 -16 -2 -21 -3 -6 0 -14
-6 -18 -11 -4 -6 -41 -28 -82 -49 -41 -21 -77 -41 -80 -45 -3 -4 -30 -20 -60
-35 -30 -16 -57 -31 -60 -35 -14 -18 -90 -50 -106 -46 -14 4 -13 3 2 -6 18 -9
37 -2 135 53 63 36 177 100 254 143 77 43 196 111 265 150 69 39 164 93 213
119 48 26 85 51 83 54 -2 4 10 8 27 8 20 1 63 -17 125 -52 52 -30 96 -54 98
-54 2 0 27 -14 56 -31 62 -37 210 -120 286 -160 30 -15 59 -32 65 -37 7 -5 48
-29 92 -52 44 -24 121 -67 172 -96 50 -30 96 -54 101 -54 6 0 13 -6 15 -12 4
-10 6 -10 6 0 1 7 -7 15 -16 19 -10 3 -40 21 -68 38 -79 50 -165 100 -225 130
-30 15 -57 31 -60 34 -3 4 -39 24 -80 45 -41 22 -86 47 -100 56 -14 10 -54 32
-89 50 -47 24 -60 35 -50 42 10 6 7 7 -10 3 -17 -5 -22 -4 -16 5 5 8 4 11 -2
7 -6 -4 -30 6 -54 22 -24 16 -47 27 -51 25 -4 -3 -8 0 -8 5 0 6 -9 11 -19 11
-11 0 -21 3 -23 8 -1 4 -24 18 -50 32 -27 13 -48 28 -48 32 0 13 -43 9 -75 -8z"/>
<path d="M2063 3405 c-7 -8 -9 -16 -4 -19 5 -3 12 1 15 10 8 22 4 25 -11 9z"/>
<path d="M995 3401 c-3 -5 -2 -12 3 -15 5 -3 9 1 9 9 0 17 -3 19 -12 6z"/>
<path d="M1870 3401 c0 -6 4 -13 10 -16 6 -3 7 1 4 9 -7 18 -14 21 -14 7z"/>
<path d="M2317 3379 c7 -7 15 -10 18 -7 3 3 -2 9 -12 12 -14 6 -15 5 -6 -5z"/>
<path d="M1380 3370 c0 -5 7 -10 16 -10 8 0 12 5 9 10 -3 6 -10 10 -16 10 -5
0 -9 -4 -9 -10z"/>
<path d="M1878 3363 c7 -3 16 -2 19 1 4 3 -2 6 -13 5 -11 0 -14 -3 -6 -6z"/>
<path d="M2400 3336 c0 -2 7 -7 16 -10 8 -3 12 -2 9 4 -6 10 -25 14 -25 6z"/>
<path d="M1220 3300 c0 -6 7 -10 15 -10 8 0 15 2 15 4 0 2 -7 6 -15 10 -8 3
-15 1 -15 -4z"/>
<path d="M1283 3275 c0 -7 6 -11 14 -8 7 3 13 6 13 8 0 2 -6 5 -13 8 -8 3 -14
-1 -14 -8z"/>
<path d="M963 3265 c0 -7 6 -11 14 -8 7 3 13 6 13 8 0 2 -6 5 -13 8 -8 3 -14
-1 -14 -8z"/>
<path d="M2170 3235 c-11 -13 -10 -14 4 -9 9 3 16 10 16 15 0 13 -6 11 -20 -6z"/>
<path d="M690 3236 c0 -2 7 -7 16 -10 8 -3 12 -2 9 4 -6 10 -25 14 -25 6z"/>
<path d="M858 3183 c6 -2 18 -2 25 0 6 3 1 5 -13 5 -14 0 -19 -2 -12 -5z"/>
<path d="M2396 3178 c3 -5 10 -6 15 -3 13 9 11 12 -6 12 -8 0 -12 -4 -9 -9z"/>
<path d="M573 3155 c0 -7 7 -11 15 -7 11 4 13 1 7 -7 -6 -10 -3 -11 14 -2 11
7 21 14 21 17 0 3 -4 2 -10 -1 -5 -3 -18 -1 -28 4 -14 7 -19 6 -19 -4z"/>
<path d="M991 3144 c0 -11 3 -14 6 -6 3 7 2 16 -1 19 -3 4 -6 -2 -5 -13z"/>
<path d="M1020 3146 c0 -2 7 -7 16 -10 8 -3 12 -2 9 4 -6 10 -25 14 -25 6z"/>
<path d="M415 3070 c3 -5 8 -10 11 -10 2 0 4 5 4 10 0 6 -5 10 -11 10 -5 0 -7
-4 -4 -10z"/>
<path d="M2420 3070 c-8 -5 -10 -10 -5 -10 6 0 17 5 25 10 8 5 11 10 5 10 -5
0 -17 -5 -25 -10z"/>
<path d="M440 3051 c0 -10 19 -25 25 -20 1 2 -3 10 -11 17 -8 7 -14 8 -14 3z"/>
<path d="M563 3025 c0 -8 4 -12 9 -9 5 3 6 10 3 15 -9 13 -12 11 -12 -6z"/>
<path d="M3009 3023 c-13 -16 -12 -17 4 -4 16 13 21 21 13 21 -2 0 -10 -8 -17
-17z"/>
<path d="M2270 3026 c0 -3 9 -10 20 -16 11 -6 20 -8 20 -6 0 3 -9 10 -20 16
-11 6 -20 8 -20 6z"/>
<path d="M706 2987 c3 -10 9 -15 12 -12 3 3 0 11 -7 18 -10 9 -11 8 -5 -6z"/>
<path d="M201 2961 c-1 -7 -7 -11 -16 -7 -8 3 -15 1 -15 -5 0 -6 -4 -8 -9 -4
-6 3 -9 -3 -9 -12 1 -10 -4 -36 -10 -58 -8 -27 -11 -169 -10 -422 1 -315 3
-383 14 -383 8 0 14 -4 14 -9 0 -5 9 -11 21 -14 12 -3 18 -10 14 -16 -3 -7 0
-8 9 -5 9 3 16 1 16 -5 0 -6 6 -10 12 -8 7 1 12 -4 10 -11 -1 -8 2 -11 7 -8 9
6 207 -98 239 -125 9 -8 22 -16 27 -17 30 -7 45 -14 45 -22 0 -4 11 -11 24
-14 13 -3 47 -22 76 -41 29 -19 56 -35 62 -35 5 0 6 -4 3 -10 -4 -6 1 -7 11
-3 10 4 15 2 11 -3 -3 -6 3 -11 14 -11 24 -2 51 -22 44 -33 -3 -4 1 -7 8 -7 6
0 26 -5 44 -12 23 -9 30 -17 26 -29 -4 -13 -3 -14 5 -4 7 11 26 4 86 -32 43
-25 82 -46 87 -46 6 0 7 -4 4 -10 -3 -5 0 -7 7 -5 8 3 23 -2 33 -12 11 -10 40
-28 65 -40 25 -13 86 -47 135 -77 50 -30 110 -64 135 -76 24 -11 47 -24 50
-28 6 -9 66 -42 75 -42 18 0 -24 34 -74 61 -31 16 -63 34 -71 39 -25 17 -643
368 -944 536 -92 53 -201 115 -241 140 -41 24 -77 44 -82 44 -12 0 -5 802 7
814 6 6 10 18 10 28 0 10 5 18 10 18 6 0 73 -35 148 -79 75 -43 335 -190 577
-326 583 -329 627 -354 647 -369 16 -12 18 -46 19 -432 1 -230 5 -430 9 -444
5 -14 9 -20 10 -15 1 6 1 207 1 448 -1 466 0 456 -49 471 -12 4 -22 11 -22 15
0 4 -6 8 -12 8 -15 0 -141 74 -146 85 -2 5 -9 8 -15 8 -7 0 -39 17 -72 36 -46
28 -53 34 -30 30 24 -5 27 -4 12 4 -9 6 -27 8 -38 5 -16 -5 -19 -4 -14 5 5 8
4 11 -3 6 -6 -3 -40 12 -76 34 -36 22 -80 47 -98 55 -18 9 -51 27 -73 40 -22
14 -55 32 -73 42 -23 12 -29 19 -20 26 9 6 7 7 -5 3 -23 -7 -60 11 -51 26 4 7
3 8 -4 4 -10 -6 -90 27 -102 43 -3 4 -18 12 -33 19 -15 7 -25 17 -22 22 3 5 0
7 -8 5 -7 -3 -33 8 -58 25 -24 16 -51 30 -59 30 -13 0 -13 1 0 11 12 8 10 9
-9 4 -14 -4 -21 -3 -18 2 4 5 1 10 -6 10 -20 0 -108 54 -102 63 3 4 -5 6 -17
3 -19 -4 -21 -3 -8 7 13 10 12 11 -4 6 -20 -7 -49 11 -41 24 3 5 -4 6 -15 3
-11 -3 -20 0 -20 6 0 6 -6 11 -14 11 -8 0 -22 7 -30 16 -9 8 -16 12 -17 7 0
-4 -4 1 -9 12 -5 11 -9 14 -9 6z"/>
<path d="M3040 2919 c-36 -22 -85 -50 -110 -62 -25 -12 -60 -33 -79 -46 -19
-13 -47 -24 -63 -24 -16 0 -24 -3 -18 -7 13 -8 -52 -50 -76 -50 -9 0 -12 -5
-8 -12 5 -8 0 -9 -14 -6 -14 4 -20 2 -15 -5 4 -7 0 -8 -11 -4 -9 4 -15 3 -12
-2 6 -10 -41 -44 -61 -44 -7 0 -13 -4 -13 -9 0 -5 -5 -6 -12 -2 -7 5 -8 3 -3
-6 6 -10 4 -12 -9 -7 -9 4 -15 3 -12 -2 3 -5 -6 -14 -22 -20 -28 -11 -71 -35
-116 -64 -14 -10 -26 -14 -26 -10 0 5 -4 3 -8 -2 -4 -6 -25 -19 -47 -30 -22
-11 -42 -23 -45 -26 -3 -3 -25 -16 -50 -30 -25 -13 -47 -27 -50 -30 -12 -15
-51 -29 -62 -23 -6 4 -8 3 -5 -3 3 -5 -22 -24 -56 -42 -34 -18 -91 -50 -127
-71 -36 -22 -71 -39 -77 -39 -7 -1 -13 -6 -13 -11 0 -6 -6 -10 -12 -9 -25 3
-39 -1 -33 -10 3 -5 -5 -13 -17 -17 -51 -16 -50 -3 -49 -477 0 -386 2 -443 16
-452 10 -7 21 -6 33 2 39 27 170 103 176 103 3 0 41 22 84 48 42 27 98 58 124
71 25 12 52 29 59 37 7 8 18 13 26 10 8 -3 11 -2 8 3 -5 9 13 59 25 71 3 3 6
12 7 20 3 30 40 120 46 113 4 -3 7 1 7 11 0 27 41 146 51 146 4 0 5 7 2 17 -4
11 -3 14 5 9 7 -4 10 -2 7 6 -7 18 20 90 30 81 4 -5 5 -3 1 4 -3 6 5 35 19 65
14 29 23 43 21 31 -2 -13 1 -26 6 -30 7 -3 8 -1 4 5 -4 7 -3 12 1 12 11 0 46
-60 36 -61 -4 -1 -12 -1 -16 0 -5 1 -6 -3 -2 -9 5 -8 11 -7 21 1 11 9 14 9 14
0 0 -7 14 -33 31 -57 17 -25 28 -52 25 -60 -3 -8 -2 -13 2 -11 9 6 33 -19 25
-27 -4 -3 -1 -6 6 -6 7 0 10 -4 7 -8 -3 -5 4 -16 15 -26 12 -10 18 -24 15 -32
-3 -9 -1 -12 4 -9 6 3 10 11 10 17 0 12 -186 325 -207 348 -11 12 -13 12 -13
0 0 -13 -40 -124 -166 -460 l-55 -146 -52 -31 c-29 -17 -74 -43 -102 -59 -27
-15 -98 -56 -157 -91 -59 -34 -111 -63 -115 -63 -5 0 -19 -9 -32 -21 -12 -12
-25 -19 -28 -16 -8 9 -4 880 5 889 7 7 432 248 438 248 1 0 35 20 76 43 40 24
168 97 283 162 385 216 450 253 515 293 64 39 65 39 74 18 4 -11 12 -29 17
-38 5 -10 9 -195 9 -412 l0 -395 -27 -14 c-24 -12 -324 -186 -420 -243 -41
-24 -54 -48 -16 -29 15 8 31 11 36 8 6 -3 7 -2 4 4 -4 5 6 16 21 24 15 8 46
26 68 42 23 15 46 27 51 27 6 0 21 9 34 21 13 11 31 18 41 16 9 -3 16 -1 15 5
-1 5 21 22 48 37 28 15 76 44 107 64 l56 37 -1 419 c-1 230 -5 414 -9 408 -5
-8 -8 -7 -8 4 0 14 -30 50 -41 49 -2 -1 -33 -19 -69 -41z"/>
<path d="M2834 2904 c-18 -14 -18 -15 4 -4 12 6 22 13 22 15 0 8 -5 6 -26 -11z"/>
<path d="M2885 2870 c-3 -6 1 -7 9 -4 18 7 21 14 7 14 -6 0 -13 -4 -16 -10z"/>
<path d="M640 2846 c0 -5 219 -136 227 -136 3 0 17 -8 31 -19 15 -10 70 -41
122 -68 52 -28 123 -67 158 -87 34 -21 76 -42 92 -48 17 -5 30 -14 30 -18 0
-4 31 -23 70 -41 38 -19 70 -37 70 -41 0 -5 4 -8 9 -8 5 0 37 -16 70 -34 34
-19 61 -32 61 -28 0 7 -25 23 -120 75 -106 58 -135 74 -185 104 -27 16 -57 32
-65 36 -8 4 -31 17 -50 28 -19 12 -53 31 -75 42 -22 12 -42 24 -45 28 -3 3
-21 13 -40 22 -19 9 -57 30 -85 46 -27 17 -77 44 -110 61 -33 18 -64 36 -70
40 -14 11 -84 50 -90 50 -3 0 -5 -2 -5 -4z"/>
<path d="M2430 2724 c-102 -58 -212 -121 -245 -139 -332 -184 -475 -268 -475
-277 0 -5 3 -7 8 -5 4 3 37 23 75 46 37 22 69 41 72 41 9 0 130 74 133 82 2 4
10 8 18 8 7 0 37 14 66 31 77 45 77 45 148 81 36 18 67 36 70 39 3 3 34 21 70
40 36 19 67 37 70 40 3 4 24 16 46 27 74 38 159 92 144 92 -8 -1 -98 -48 -200
-106z"/>
<path d="M440 2740 c-8 -5 -10 -10 -5 -10 6 0 17 5 25 10 8 5 11 10 5 10 -5 0
-17 -5 -25 -10z"/>
<path d="M2690 2676 c0 -2 7 -7 16 -10 8 -3 12 -2 9 4 -6 10 -25 14 -25 6z"/>
<path d="M2570 2590 c-8 -5 -12 -11 -10 -14 3 -2 14 2 24 10 22 15 10 19 -14
4z"/>
<path d="M2601 2581 c-10 -7 -7 -9 12 -8 14 1 23 5 20 10 -6 9 -15 9 -32 -2z"/>
<path d="M815 2533 c11 -12 34 -24 50 -27 l30 -6 -30 11 c-16 6 -39 19 -50 27
l-20 16 20 -21z"/>
<path d="M1025 2540 c3 -5 8 -10 11 -10 2 0 4 5 4 10 0 6 -5 10 -11 10 -5 0
-7 -4 -4 -10z"/>
<path d="M2459 2523 c-13 -16 -12 -17 4 -4 9 7 17 15 17 17 0 8 -8 3 -21 -13z"/>
<path d="M2420 2500 c-9 -6 -10 -10 -3 -10 6 0 15 5 18 10 8 12 4 12 -15 0z"/>
<path d="M980 2441 c14 -11 30 -21 35 -21 11 0 -7 14 -40 31 -13 7 -12 3 5
-10z"/>
<path d="M2290 2435 c-23 -13 -21 -16 12 -19 6 -1 12 7 14 17 1 9 2 17 1 17
-1 -1 -13 -7 -27 -15z"/>
<path d="M1111 2366 c10 -9 69 -36 69 -32 0 6 -55 36 -66 36 -4 0 -5 -2 -3 -4z"/>
<path d="M2151 2351 c-7 -5 -9 -11 -5 -14 5 -3 15 1 22 9 14 16 5 18 -17 5z"/>
<path d="M1600 2300 c0 -6 7 -10 15 -10 8 0 15 2 15 4 0 2 -7 6 -15 10 -8 3
-15 1 -15 -4z"/>
<path d="M2050 2300 c0 -5 5 -10 10 -10 6 0 10 5 10 10 0 6 -4 10 -10 10 -5 0
-10 -4 -10 -10z"/>
<path d="M1648 2283 c7 -3 16 -2 19 1 4 3 -2 6 -13 5 -11 0 -14 -3 -6 -6z"/>
<path d="M2007 2269 c7 -7 15 -10 18 -7 3 3 -2 9 -12 12 -14 6 -15 5 -6 -5z"/>
<path d="M1373 2227 c9 -8 17 -18 17 -22 0 -4 -8 -4 -17 -1 -15 5 -14 3 2 -9
11 -9 26 -13 33 -10 8 3 23 -2 35 -10 12 -8 26 -15 32 -15 5 0 -6 10 -25 21
-19 12 -37 25 -40 29 -3 4 -16 12 -30 19 -22 11 -23 10 -7 -2z"/>
<path d="M1875 2199 c-34 -21 -29 -25 10 -7 14 6 25 15 25 20 0 10 1 10 -35
-13z"/>
<path d="M1810 2162 c0 -6 -11 -14 -25 -18 -22 -5 -25 -11 -24 -48 2 -33 3
-35 6 -11 2 17 16 40 31 52 14 12 23 25 19 29 -4 4 -7 2 -7 -4z"/>
<path d="M1508 2143 c6 -2 12 -13 12 -23 0 -24 17 -35 17 -12 0 21 -16 42 -31
41 -7 0 -6 -2 2 -6z"/>
<path d="M2445 2060 c3 -5 8 -10 11 -10 2 0 4 5 4 10 0 6 -5 10 -11 10 -5 0
-7 -4 -4 -10z"/>
<path d="M1525 2040 c-3 -5 -1 -10 4 -10 6 0 11 5 11 10 0 6 -2 10 -4 10 -3 0
-8 -4 -11 -10z"/>
<path d="M1764 1950 c0 -52 1 -74 3 -47 2 26 2 68 0 95 -2 26 -3 4 -3 -48z"/>
<path d="M374 1994 c-18 -14 -18 -15 4 -4 12 6 22 13 22 15 0 8 -5 6 -26 -11z"/>
<path d="M2891 2006 c2 -2 15 -9 29 -15 24 -11 24 -11 6 3 -16 13 -49 24 -35
12z"/>
<path d="M1526 1880 c1 -45 5 -84 8 -87 8 -9 6 128 -2 150 -4 10 -7 -19 -6
-63z"/>
<path d="M2605 1950 c3 -5 8 -10 11 -10 2 0 4 5 4 10 0 6 -5 10 -11 10 -5 0
-7 -4 -4 -10z"/>
<path d="M140 1915 c-7 -8 -9 -148 -6 -421 4 -427 7 -458 50 -493 9 -7 13 -18
9 -25 -3 -6 -3 -8 2 -4 7 7 69 -24 85 -41 3 -4 28 -16 55 -29 28 -13 57 -27
65 -32 194 -114 243 -141 339 -192 40 -21 85 -47 101 -58 15 -11 31 -16 35
-12 5 4 6 0 2 -9 -4 -13 -1 -16 15 -11 11 2 23 1 27 -4 9 -14 103 -74 114 -74
6 0 24 -10 41 -23 17 -13 60 -38 96 -57 36 -18 89 -48 118 -66 29 -19 54 -34
56 -34 2 0 34 -18 70 -40 36 -22 70 -40 74 -40 5 0 19 -9 32 -20 13 -11 28
-20 34 -20 17 0 -6 18 -80 62 -138 82 -306 178 -311 178 -2 0 -24 14 -48 30
-24 17 -47 30 -50 30 -4 0 -44 22 -89 49 -44 26 -133 77 -196 112 -63 35 -123
69 -132 74 -10 6 -50 27 -90 49 -40 21 -84 46 -98 56 -14 9 -72 43 -130 75
-58 31 -117 68 -131 82 -47 43 -50 77 -47 504 l3 397 70 -41 c87 -50 642 -364
750 -425 119 -67 146 -82 320 -182 88 -51 187 -108 220 -127 l60 -34 -1 -430
c0 -237 3 -432 8 -435 4 -3 8 28 8 68 0 40 1 240 3 445 1 204 0 371 -3 371
-13 -2 -60 23 -60 32 0 5 -3 9 -7 9 -29 -5 -36 2 -17 17 18 14 18 15 -5 4 -13
-7 -26 -8 -30 -4 -3 5 -24 18 -45 29 -84 43 -97 51 -89 60 4 4 1 6 -8 2 -9 -3
-25 2 -35 12 -19 17 -26 21 -41 21 -5 0 -1 5 7 11 12 8 11 9 -6 4 -15 -4 -31
2 -50 18 -16 13 -35 22 -43 19 -8 -3 -11 0 -7 7 4 6 0 11 -9 11 -24 0 -89 47
-73 53 7 3 0 4 -17 4 -20 -1 -29 2 -27 11 1 8 -2 11 -8 7 -6 -4 -26 5 -45 19
-18 14 -41 26 -49 26 -9 0 -16 3 -16 8 0 4 -20 15 -45 25 -25 11 -45 23 -45
27 0 4 -12 11 -27 15 -20 5 -24 8 -13 15 8 5 18 6 24 3 5 -3 6 -1 2 5 -5 9
-13 9 -26 2 -24 -13 -33 -13 -25 0 4 6 3 9 -2 8 -15 -4 -53 13 -48 22 3 4 -3
14 -13 21 -15 13 -16 12 -3 -3 19 -24 5 -22 -32 4 -18 13 -35 23 -38 23 -13 0
-79 40 -79 48 0 4 -4 6 -8 3 -4 -2 -19 4 -32 15 -20 16 -21 18 -5 13 11 -4 17
-4 14 0 -4 4 -19 9 -35 12 -16 3 -40 13 -54 22 -14 9 -29 15 -34 14 -5 -2 -3
5 5 14 13 16 12 16 -8 5 -13 -6 -23 -8 -23 -2 0 5 -15 14 -34 21 -18 6 -42 20
-51 30 -10 11 -26 20 -37 20 -10 0 -18 4 -18 8 0 4 -16 15 -35 24 -27 12 -37
13 -45 3z"/>
<path d="M3117 1915 c-11 -7 -26 -11 -35 -8 -13 4 -14 3 -4 -5 11 -7 10 -11
-5 -17 -10 -5 -20 -9 -23 -9 -3 -1 -18 -10 -35 -21 -34 -23 -66 -40 -109 -55
-16 -6 -26 -14 -22 -17 8 -8 -50 -33 -67 -29 -6 1 -9 1 -4 -1 4 -3 7 -10 7
-16 0 -5 -3 -7 -6 -4 -4 4 -19 -2 -34 -13 -32 -22 -45 -26 -34 -8 4 7 3 8 -5
4 -6 -4 -9 -12 -6 -17 4 -5 -6 -14 -22 -20 -37 -14 -180 -98 -193 -114 -11
-14 -19 -885 -8 -885 3 0 8 -8 11 -17 2 -10 5 187 6 437 2 411 3 456 18 465
17 10 136 79 253 145 100 57 335 192 339 196 1 1 1 7 0 13 -3 6 -12 4 -22 -4z"/>
<path d="M3150 1513 c0 -247 -4 -412 -11 -436 -10 -39 -63 -107 -82 -107 -6 0
-18 -6 -26 -14 -9 -8 -45 -29 -81 -47 -36 -18 -88 -48 -117 -66 -29 -18 -55
-33 -59 -33 -15 0 -234 -133 -234 -142 0 -6 10 -4 23 4 12 8 60 37 107 63 47
26 97 56 113 67 15 11 27 16 27 12 0 -3 7 -1 15 6 8 7 41 26 72 42 109 56 181
99 193 113 7 8 17 12 23 8 5 -3 7 -1 4 4 -4 6 0 16 8 23 34 28 38 79 39 492 1
225 -2 408 -6 408 -5 0 -8 -179 -8 -397z"/>
<path d="M2840 1870 c-8 -5 -10 -10 -5 -10 6 0 17 5 25 10 8 5 11 10 5 10 -5
0 -17 -5 -25 -10z"/>
<path d="M3170 1870 c0 -5 5 -10 11 -10 5 0 7 5 4 10 -3 6 -8 10 -11 10 -2 0
-4 -4 -4 -10z"/>
<path d="M1764 1730 c0 -69 1 -97 3 -62 2 34 2 90 0 125 -2 34 -3 6 -3 -63z"/>
<path d="M240 1805 c5 -7 8 -14 5 -17 -3 -2 5 -4 18 -3 12 1 20 6 17 11 -2 5
-11 8 -18 6 -8 -2 -12 1 -8 6 3 5 -1 9 -9 9 -10 0 -12 -4 -5 -12z"/>
<path d="M3020 1790 c-9 -6 -10 -10 -3 -10 6 0 15 5 18 10 8 12 4 12 -15 0z"/>
<path d="M312 1774 c10 -10 20 -16 22 -13 3 3 -5 11 -17 18 -21 13 -21 12 -5
-5z"/>
<path d="M1526 1772 c-2 -4 -1 -23 4 -42 l8 -35 1 43 c1 41 -3 50 -13 34z"/>
<path d="M415 1710 c-3 -6 1 -7 9 -4 18 7 21 14 7 14 -6 0 -13 -4 -16 -10z"/>
<path d="M2876 1711 c-4 -5 3 -7 14 -4 23 6 26 13 6 13 -8 0 -17 -4 -20 -9z"/>
<path d="M477 1675 c5 -14 43 -28 43 -17 0 4 -11 12 -24 18 -19 9 -23 9 -19
-1z"/>
<path d="M1528 1650 c-2 -22 0 -40 4 -40 5 0 8 18 8 40 0 22 -2 40 -4 40 -2 0
-6 -18 -8 -40z"/>
<path d="M940 1666 c0 -2 8 -10 18 -17 15 -13 16 -12 3 4 -13 16 -21 21 -21
13z"/>
<path d="M2798 1663 c7 -3 16 -2 19 1 4 3 -2 6 -13 5 -11 0 -14 -3 -6 -6z"/>
<path d="M555 1630 c-3 -5 1 -10 10 -10 9 0 13 5 10 10 -3 6 -8 10 -10 10 -2
0 -7 -4 -10 -10z"/>
<path d="M2725 1630 c-13 -6 -15 -9 -5 -9 8 0 22 4 30 9 18 12 2 12 -25 0z"/>
<path d="M590 1610 c0 -5 5 -10 10 -10 6 0 10 5 10 10 0 6 -4 10 -10 10 -5 0
-10 -4 -10 -10z"/>
<path d="M1763 1535 c0 -38 2 -53 4 -32 2 20 2 52 0 70 -2 17 -4 1 -4 -38z"/>
<path d="M1532 1560 c0 -14 2 -19 5 -12 2 6 2 18 0 25 -3 6 -5 1 -5 -13z"/>
<path d="M673 1557 c15 -7 24 -17 20 -21 -4 -4 1 -4 11 0 21 8 9 17 -34 28
-23 5 -23 5 3 -7z"/>
<path d="M965 1540 c-3 -6 1 -7 9 -4 18 7 21 14 7 14 -6 0 -13 -4 -16 -10z"/>
<path d="M738 1523 c7 -3 16 -2 19 1 4 3 -2 6 -13 5 -11 0 -14 -3 -6 -6z"/>
<path d="M1533 1460 c0 -41 2 -58 4 -37 2 20 2 54 0 75 -2 20 -4 3 -4 -38z"/>
<path d="M790 1491 c0 -5 7 -12 16 -15 24 -9 27 -7 10 9 -17 17 -26 19 -26 6z"/>
<path d="M2315 1456 c-36 -28 -82 -45 -70 -26 5 9 4 11 -4 6 -6 -4 -9 -11 -6
-16 3 -5 -17 -22 -45 -37 -29 -16 -77 -43 -108 -62 -31 -18 -62 -34 -69 -34
-7 0 -9 -5 -6 -10 4 -6 -3 -8 -15 -5 -12 4 -20 2 -16 -3 3 -5 -7 -15 -23 -21
-15 -7 -50 -28 -77 -46 -28 -18 -58 -31 -67 -29 -12 3 -16 0 -12 -9 4 -12 0
-15 -22 -14 -3 1 -12 -5 -19 -12 -8 -7 -22 -19 -32 -26 -18 -12 -19 -31 -17
-393 2 -209 7 -387 11 -396 5 -8 10 160 11 384 1 219 5 399 10 401 28 9 601
341 621 359 26 24 -12 15 -45 -11z"/>
<path d="M2380 1029 c0 -243 3 -440 6 -436 9 9 11 868 2 873 -5 3 -8 -194 -8
-437z"/>
<path d="M900 1431 c0 -10 30 -24 37 -17 3 2 -5 9 -16 16 -12 6 -21 7 -21 1z"/>
<path d="M2341 1404 c0 -11 3 -14 6 -6 3 7 2 16 -1 19 -3 4 -6 -2 -5 -13z"/>
<path d="M954 1401 c3 -5 16 -11 28 -14 22 -6 22 -5 4 8 -22 17 -40 20 -32 6z"/>
<path d="M2266 1371 c-4 -5 3 -7 14 -4 23 6 26 13 6 13 -8 0 -17 -4 -20 -9z"/>
<path d="M1090 1332 c0 -7 7 -15 15 -18 8 -4 12 -10 9 -15 -3 -5 2 -6 11 -2
10 3 21 0 25 -7 4 -7 14 -10 21 -7 8 3 -2 12 -26 22 -22 9 -43 22 -47 29 -6 8
-8 7 -8 -2z"/>
<path d="M2160 1308 c-19 -11 -37 -23 -40 -27 -3 -4 -16 -12 -30 -18 -14 -6
-18 -12 -10 -12 8 0 42 17 75 39 62 42 66 54 5 18z"/>
<path d="M1890 1306 c0 -2 7 -7 16 -10 8 -3 12 -2 9 4 -6 10 -25 14 -25 6z"/>
<path d="M2560 1289 c0 -5 5 -7 10 -4 6 3 10 8 10 11 0 2 -4 4 -10 4 -5 0 -10
-5 -10 -11z"/>
<path d="M1200 1260 c8 -6 24 -15 35 -21 16 -8 15 -6 -4 10 -13 12 -28 21 -35
21 -6 0 -4 -5 4 -10z"/>
<path d="M1268 1223 c7 -3 16 -2 19 1 4 3 -2 6 -13 5 -11 0 -14 -3 -6 -6z"/>
<path d="M2000 1215 c-14 -8 -20 -14 -15 -14 6 0 21 6 35 14 14 8 21 14 15 14
-5 0 -21 -6 -35 -14z"/>
<path d="M1343 1178 c15 -5 24 -14 21 -20 -5 -7 -2 -8 6 -3 7 4 16 2 20 -5 4
-7 14 -10 21 -8 15 5 -62 49 -83 47 -7 0 -1 -5 15 -11z"/>
<path d="M1947 1179 c-9 -5 -22 -7 -29 -3 -6 4 -8 3 -4 -4 3 -6 -2 -15 -11
-21 -28 -16 -10 -13 25 5 18 8 34 19 37 25 8 11 5 11 -18 -2z"/>
<path d="M1437 1129 c7 -7 15 -10 18 -7 3 3 -2 9 -12 12 -14 6 -15 5 -6 -5z"/>
<path d="M1815 1111 l-50 -28 -3 -158 c-1 -87 0 -157 3 -154 2 3 5 70 6 149 0
142 7 170 38 170 6 0 11 4 11 8 0 5 15 16 33 25 17 8 28 16 22 16 -5 0 -32
-12 -60 -28z"/>
<path d="M2561 1084 c0 -11 3 -14 6 -6 3 7 2 16 -1 19 -3 4 -6 -2 -5 -13z"/>
<path d="M1516 1075 c4 -8 10 -15 15 -15 4 0 6 7 3 15 -4 8 -10 15 -15 15 -4
0 -6 -7 -3 -15z"/>
<path d="M1528 978 c-2 -40 -1 -89 3 -108 4 -22 7 4 8 73 0 59 -1 107 -3 107
-2 0 -6 -33 -8 -72z"/>
<path d="M200 1036 c0 -2 8 -10 18 -17 15 -13 16 -12 3 4 -13 16 -21 21 -21
13z"/>
<path d="M3060 1010 c-9 -6 -10 -10 -3 -10 6 0 15 5 18 10 8 12 4 12 -15 0z"/>
<path d="M1533 780 c0 -30 2 -43 4 -27 2 15 2 39 0 55 -2 15 -4 2 -4 -28z"/>
<path d="M1762 725 c0 -16 2 -22 5 -12 2 9 2 23 0 30 -3 6 -5 -1 -5 -18z"/>
<path d="M1520 694 c0 -8 5 -12 10 -9 6 3 10 10 10 16 0 5 -4 9 -10 9 -5 0
-10 -7 -10 -16z"/>
<path d="M2245 513 c-179 -107 -436 -253 -443 -253 -4 0 -20 -11 -37 -25 -35
-28 -20 -34 16 -7 13 10 49 32 79 48 30 16 57 31 60 34 3 4 28 16 55 29 28 13
64 33 80 46 17 12 55 35 85 50 30 15 57 30 60 34 3 3 14 11 25 17 11 6 43 23
70 39 28 15 61 34 75 41 21 12 22 14 5 13 -11 -1 -69 -30 -130 -66z"/>
<path d="M1762 545 c0 -16 2 -22 5 -12 2 9 2 23 0 30 -3 6 -5 -1 -5 -18z"/>
<path d="M1717 293 c-7 -13 -6 -72 1 -77 4 -2 8 16 10 40 3 41 -1 54 -11 37z"/>
</g>
</svg>
